<svg xmlns="http://www.w3.org/2000/svg" xmlns:xlink="http://www.w3.org/1999/xlink" viewBox="0 0 1196.46 326.14"><defs><style>.cls-1{mask:url(#mask);filter:url(#luminosity-noclip-2);}.cls-2{mix-blend-mode:multiply;fill:url(#linear-gradient);}.cls-3{fill:url(#linear-gradient-2);}.cls-4{mask:url(#mask-2);}.cls-5{fill:url(#linear-gradient-3);}.cls-6{fill:url(#linear-gradient-4);}.cls-7{fill:url(#VKOf_VXEHb_3);}.cls-8{filter:url(#luminosity-noclip);}</style><filter id="luminosity-noclip" x="0" y="-9597.61" width="1196.46" height="32766" filterUnits="userSpaceOnUse" color-interpolation-filters="sRGB"><feFlood flood-color="#fff" result="bg"/><feBlend in="SourceGraphic" in2="bg"/></filter><mask id="mask" x="0" y="-9597.61" width="1196.46" height="32766" maskUnits="userSpaceOnUse"><g class="cls-8"/></mask><linearGradient id="linear-gradient" x1="598.23" x2="598.23" y2="163.07" gradientUnits="userSpaceOnUse"><stop offset="0" stop-color="#ccc"/><stop offset="1"/></linearGradient><linearGradient id="linear-gradient-2" x1="598.23" x2="598.23" y2="326.14" gradientUnits="userSpaceOnUse"><stop offset="0" stop-color="#be945b"/><stop offset="0.2" stop-color="#d8c498"/><stop offset="0.36" stop-color="#ebe7c3"/><stop offset="0.44" stop-color="#f2f4d4"/><stop offset="0.53" stop-color="#d2ccab"/><stop offset="0.65" stop-color="#b1a17f"/><stop offset="0.75" stop-color="#98825f"/><stop offset="0.83" stop-color="#896f4c"/><stop offset="0.89" stop-color="#846845"/><stop offset="1" stop-color="#be945b"/></linearGradient><filter id="luminosity-noclip-2" x="0" y="0" width="1196.46" height="163.07" filterUnits="userSpaceOnUse" color-interpolation-filters="sRGB"><feFlood flood-color="#fff" result="bg"/><feBlend in="SourceGraphic" in2="bg"/></filter><mask id="mask-2" x="0" y="0" width="1196.46" height="163.07" maskUnits="userSpaceOnUse"><g class="cls-1"><path class="cls-2" d="M0,163.07C0,73.38,66.7,0,148.23,0h900c81.54,0,148.24,73.38,148.24,163.07Z"/></g></mask><linearGradient id="linear-gradient-3" x1="598.23" x2="598.23" y2="163.07" gradientUnits="userSpaceOnUse"><stop offset="0" stop-color="#fff"/><stop offset="1" stop-color="#fff"/></linearGradient><linearGradient id="linear-gradient-4" x1="590.96" y1="23.05" x2="590.96" y2="303.09" gradientUnits="userSpaceOnUse"><stop offset="0" stop-color="#68593d"/><stop offset="0.04" stop-color="#7e7255"/><stop offset="0.16" stop-color="#bcb799"/><stop offset="0.25" stop-color="#e3e3c4"/><stop offset="0.3" stop-color="#f2f4d4"/><stop offset="0.3" stop-color="#eff1d1"/><stop offset="0.48" stop-color="#aaa78b"/><stop offset="0.62" stop-color="#787258"/><stop offset="0.73" stop-color="#5a5038"/><stop offset="0.79" stop-color="#4e442c"/><stop offset="1" stop-color="#a68c5b"/></linearGradient><linearGradient id="VKOf_VXEHb_3" x1="590.97" y1="32.93" x2="590.97" y2="293.21" gradientUnits="userSpaceOnUse"><stop offset="0" stop-color="#997844"/><stop offset="0.03" stop-color="#a18452"/><stop offset="0.22" stop-color="#cdc098"/><stop offset="0.36" stop-color="#e8e6c3"/><stop offset="0.42" stop-color="#f2f4d4"/><stop offset="0.51" stop-color="#efefce"/><stop offset="0.62" stop-color="#e5e2bf"/><stop offset="0.75" stop-color="#d4cba5"/><stop offset="0.88" stop-color="#beac81"/><stop offset="1" stop-color="#a68c5b"/></linearGradient></defs><g id="圖層_2" data-name="圖層 2"><g id="Layer_3" data-name="Layer 3"><path class="cls-3" d="M1196.46,163.07c0,89.69-66.7,163.07-148.24,163.07h-900C66.7,326.14,0,252.76,0,163.07S66.7,0,148.23,0h900C1129.76,0,1196.46,73.38,1196.46,163.07Z"/><g class="cls-4"><path class="cls-5" d="M0,163.07C0,73.38,66.7,0,148.23,0h900c81.54,0,148.24,73.38,148.24,163.07Z"/></g><path class="cls-6" d="M23.85,163.07c0,77,76.06,140,169,140H989.07c93,0,169-63,169-140s-76-140-169-140H192.86C99.91,23.05,23.85,86.06,23.85,163.07Z"/><path class="cls-7" d="M192.86,293.21c-87,0-157.74-58.38-157.74-130.14S105.88,32.93,192.86,32.93H989.07c87,0,157.75,58.38,157.75,130.14s-70.77,130.14-157.75,130.14Z"/></g></g></svg>