<svg xmlns="http://www.w3.org/2000/svg" xmlns:xlink="http://www.w3.org/1999/xlink" viewBox="0 0 868.21 231.04"><defs><style>.cls-1{fill:url(#linear-gradient);}.cls-2{fill:url(#linear-gradient-2);}</style><linearGradient id="linear-gradient" x1="434.1" y1="231.04" x2="434.1" gradientUnits="userSpaceOnUse"><stop offset="0" stop-color="#ce9757"/><stop offset="0.01" stop-color="#c48f52"/><stop offset="0.03" stop-color="#ad7c45"/><stop offset="0.05" stop-color="#9b6e3c"/><stop offset="0.08" stop-color="#8e6435"/><stop offset="0.11" stop-color="#875e31"/><stop offset="0.19" stop-color="#855c30"/><stop offset="0.7" stop-color="#fdfbe2"/><stop offset="1" stop-color="#ce9757"/></linearGradient><linearGradient id="linear-gradient-2" y1="59.07" x2="868.21" y2="59.07" gradientUnits="userSpaceOnUse"><stop offset="0" stop-color="#6d5939"/><stop offset="0.04" stop-color="#827252"/><stop offset="0.16" stop-color="#beb797"/><stop offset="0.25" stop-color="#e4e3c3"/><stop offset="0.3" stop-color="#f2f4d4"/><stop offset="0.31" stop-color="#edefcf"/><stop offset="0.48" stop-color="#aaa587"/><stop offset="0.62" stop-color="#7a7053"/><stop offset="0.73" stop-color="#5b4e32"/><stop offset="0.79" stop-color="#504226"/><stop offset="1" stop-color="#b28e57"/></linearGradient></defs><g id="圖層_2" data-name="圖層 2"><g id="Layer_3" data-name="Layer 3"><path class="cls-1" d="M868.21,121.11c0,60.71-47.68,109.93-106.49,109.93H106.5C47.68,231,0,181.82,0,121.11V109.93C0,49.22,47.68,0,106.5,0H761.72c58.81,0,106.49,49.22,106.49,109.93Z"/><path class="cls-2" d="M761.72,0H106.5C47.68,0,0,49.22,0,109.93v8.21C0,57.43,47.68,8.22,106.5,8.22H761.72c58.81,0,106.49,49.21,106.49,109.92v-8.21C868.21,49.22,820.53,0,761.72,0Z"/></g></g></svg>